<svg xmlns="http://www.w3.org/2000/svg" xmlns:xlink="http://www.w3.org/1999/xlink" width="968" height="1208" viewBox="0 0 968 1208">
  <defs>
    <style>
      .cls-1 {
        fill: red;
        fill-rule: evenodd;
        filter: url(#filter);
      }
    </style>
    <filter id="filter" x="80" y="204.969" width="811" height="809.031" filterUnits="userSpaceOnUse">
      <feOffset result="offset" dy="4" in="SourceAlpha"/>
      <feGaussianBlur result="blur" stdDeviation="2"/>
      <feFlood result="flood" flood-color="#000507" flood-opacity="0.5"/>
      <feComposite result="composite" operator="in" in2="blur"/>
      <feBlend result="blend" in="SourceGraphic"/>
    </filter>
  </defs>
  <path id="МЕМАЗИС_МЕМАЗИС_МЕМАЗИС" data-name="МЕМАЗИС МЕМАЗИС МЕМАЗИС" class="cls-1" d="M539.411,969.593L536.7,896.771l-20.371,1.32,6.836,74.562-4.395-2.931-19.206-70.546-5.593.362-7.389,47-5.239-.461-1.38-46.035L458.8,901.409l9.142,104.091,21.966-1.42L497.982,943l18.882,56.12,27.558-1.785-1.707-26.356ZM433.94,1002.68l17.811-102.944-53.07-5.525-4.845,28,31.554,5.459-5.253,30.361-20.125-3.482-3.141,18.155,29.2,5.051L424.226,988.4l-43-7.439-2.116,12.233ZM357.3,955.366l31.837-65.555-18.6-8.41-29.01,69.031-2.5-4.652,16.2-71.3-5.107-2.309L321.51,910.182l-4.408-2.869,20.418-41.285-19.33-8.739-40.855,96.184,20.058,9.069,35.838-50.121-9.709,58.413,25.166,11.377,10.881-24.067ZM255.043,803.359L197.45,890.531l41.636,32.618,15.964-17.774-8.808-7.44,64.589-42.465-17.271-14-13.983,15.568L260.5,840.415l16.734-18.631Zm4.976,61.235-29.974,25.821-9.366-6.9,20.1-34.686Zm-73.8-26.22-12.039-27.106s-5.963,4.123-11.622,2.985-12.954-18.122-13.245-23.558,12.1-10.849,17.947-10.332S189.275,807.8,189.275,807.8l14.865-9.056s-7-9.6-7.485-14.416,24.93-14.444,27.949-14.5,8.837,11.157,8.288,15.966-7.951,6.157-7.951,6.157l7.026,11.533s11.389-4.408,11.529-9.032-4.419-14.339-7.939-21.129-16.943-27.708-23.768-28.216-25.184,10.03-27.9,16.505,2.795,24.911,2.795,24.911-15.4-18.873-22.4-17.773-31.768,14.926-31.867,22.577,22.946,53.006,28.2,56.317S186.222,838.374,186.222,838.374Zm-61.25-138.046c-0.434-.045-1.6-4.259-1.2-4.43l67.74-22.605-5.792-19.478-24.351,7.353,1.8,8.637L92.966,693.1l2.969,14.364L167.1,723.482l-62.045,15.869,5.783,19.4,97.157-34.985L204,707.5Zm-6.236-93.715-0.652-25.261s-34.884-1.114-34.907,6.006-0.468,39.062,7.154,55.271a10.082,10.082,0,0,0,8.924,5.826c0.279-.007.731-0.043,1.008-0.08l34.176-1.159s38.134-.184,45.524-6.267,7.459-47.258,7.375-58.529c0-.015,0-0.04,0-0.055A3.11,3.11,0,0,0,184.5,579.4l-27.789-1.6-1.877,28.307,14.859-.59s5.522,0.092,5.7,6.862c0.156,6.053-1.185,11.828-5.4,13.317s-32.066,1.628-32.066,1.628l-33.97.077s-7.184.71-7.444-8.308,2.909-11.845,5-12.023Zm14.839-119.38,64.779,33.374,8.847-18.4L138.88,471.579l4.71-2.392,70.891,17.883,2.429-5.051-37.321-29.5,2.972-4.339,40.787,21.387,9.193-19.117-95.183-43.114-9.54,19.837,49.256,37.01L118.912,453.1l-11.968,24.887,23.8,11.446Zm21.292-105.67,82.8,63.707,29.607-44.388-22.523-17.33L225.22,408.931,200.8,390.142l12.455-16.187-14.6-11.235L180.585,386.2l-8.557-6.584,26.609-34.582-9.839-7.57Zm74.019-44.82L274.5,393.582l15.565-13.21L240.1,324.6l5.276-.27,57.5,45.172,4.273-3.627-22.1-42.13,4.481-2.755,28.566,36.128,16.175-13.727-69.429-78.1-16.784,14.244L278,333.376l-48.631-33.784-21.057,17.87L225.406,337.6ZM413.2,316.019l-47.729-92.948-48.849,20.291,7.662,22.631,10.8-4.028,5.334,77.119L361.1,330.9l-6.711-19.822,23.841-8.472,8.031,23.723Zm-55.81-25.7-7.8-38.786,10.609-4.779,20.371,34.532Zm53.946-52.252,29.642,1s-1.106-7.165,2.387-11.759,21.957-3.745,26.976-1.635,4.481,15.619,1.463,20.656-34.29,7.83-34.29,7.83l1.66,17.327s11.695-2.11,16.236-.443,2.115,28.734.845,31.474-13.895,3.081-17.982.488-2.069-9.841-2.069-9.841l-13.443,1.288s-1,12.17,3.1,14.314,14.829,2.283,22.474,2.08,32.324-3.151,35.759-9.07,1.968-27.035-2.674-32.3-23.632-8.358-23.632-8.358,23.7-5.621,25.767-12.4,0.436-35.1-6.4-38.524-57.7-2.489-62.978.8S411.338,238.071,411.338,238.071Zm151.1,5.246c0.23-.37,4.527.436,4.5,0.87l-9.426,70.787,20.043,3.346,4.083-25.107-8.548-2.178,9.887-73.3L568.778,214.1,523.148,271l12.978-62.713L516.16,204.97,504.944,307.622l16.361,3.554Zm86.989,36.089,22.951,10.573s16.407-30.8,10.029-33.968-34.835-17.673-52.743-18a10.082,10.082,0,0,0-9.168,5.432c-0.117.254-.284,0.675-0.373,0.94l-14.057,31.171s-16.678,34.291-14.486,43.608,39.1,27.565,49.25,32.468l0.05,0.024a3.11,3.11,0,0,0,3.91-1.236L658.506,326.2,633.94,312.011,627.907,325.6s-2.522,4.913-8.673,2.08c-5.5-2.534-10.087-6.288-9.562-10.723s12.7-29.487,12.7-29.487l14.935-30.508s2.537-6.758,10.741-3.009,9.342,7.842,8.577,9.8Zm100.59,63.58-57.64,44.587,12.93,15.8,56.653-48.957,0.175,5.28-46.188,56.678,3.55,4.337,42.516-21.345,2.674,4.529-36.63,27.916L741.5,448.225,820.824,380.2,806.882,363.17l-54.37,28.982,34.645-48.018-17.492-21.371-20.438,16.728ZM839.2,412.464l-95.33,42.725,25.059,47.1,25.933-11.622-13.1-29.221,28.116-12.6,8.353,18.637,16.812-7.535-12.117-27.037,9.852-4.416,17.845,39.817,11.328-5.077Zm3.164,89.09-72.019,11.137,3.674,20.082,73.269-15.44-2.4,4.706L777.038,549.3l1.008,5.514,47.537,1.887,0.15,5.258-45.565,6.711,3.817,20.868,102.336-21.156-3.961-21.654-61.607-.938,53.552-25.265-4.969-27.166-25.982,4.752ZM777.905,672.316L882.251,667l1.578-52.869-23.78-2.317-0.767,11.5-72.494-26.831-1.034,22.21,20.828,2.029-2.075,25.215-24.927-2.428ZM824.265,632l38.565,8.826,0,11.635-39.852,4.378Zm23.521,73.2-14.067,26.112s6.911,2.192,9.474,7.364-6.4,21.335-10.522,24.893-15.984-2.927-19.156-7.868,8.223-34.2,8.223-34.2l-16.26-6.212s-3.306,11.415-6.818,14.743-26.682-10.874-28.572-13.229,3.414-13.817,7.553-16.327,9.736,2.52,9.736,2.52l4.819-12.616s-10.456-6.307-14.2-3.588-8.635,12.27-11.85,19.21-11.541,30.358-7.765,36.066,23.346,13.776,30.126,11.958,17.99-17.458,17.99-17.458-5.5,23.734-.343,28.594,31.248,15.987,37.358,11.382,27.872-50.589,27.272-56.774S847.786,705.2,847.786,705.2Zm-79.2,137.876c0.186,0.394-2.821,3.568-3.173,3.313l-54.367-46.3-13.678,15.027,18.882,17.042,6.464-6L778.943,874.2l10.76-9.967L766.63,795.044l45.656,44.906L825.9,824.973,745.73,759.9l-11.857,11.82Zm-69.538,58.094-20.793,14.356s18.136,29.814,24.111,25.941,32.959-20.962,42.364-36.2a10.082,10.082,0,0,0,0-10.656c-0.158-.23-0.435-0.588-0.618-0.8l-19.653-27.981s-21-31.826-30.133-34.688-43.644,19.59-53.035,25.821l-0.045.031a3.11,3.11,0,0,0-.93,4l13.852,24.141,24.726-13.9L670.275,859.1s-2.941-4.673,2.632-8.521c4.982-3.44,10.55-5.474,14.1-2.761S705.9,873.776,705.9,873.776l18.634,28.4s4.522,5.627-2.886,10.775-11.507,4.039-12.8,2.384Z"/>
</svg>
