<svg xmlns="http://www.w3.org/2000/svg" xmlns:xlink="http://www.w3.org/1999/xlink" width="561" height="562" viewBox="0 0 561 562">
  <defs>
    <style>
      .cls-1 {
        fill: #fff;
        fill-rule: evenodd;
        filter: url(#filter);
      }
    </style>
    <filter id="filter" x="0" y="1.156" width="563" height="561.844" filterUnits="userSpaceOnUse">
      <feOffset result="offset" dy="4" in="SourceAlpha"/>
      <feGaussianBlur result="blur" stdDeviation="2"/>
      <feFlood result="flood" flood-color="#000507" flood-opacity="0.5"/>
      <feComposite result="composite" operator="in" in2="blur"/>
      <feBlend result="blend" in="SourceGraphic"/>
    </filter>
  </defs>
  <path id="МЕМАЗИС_МЕМАЗИС_МЕМАЗИС" data-name="МЕМАЗИС МЕМАЗИС МЕМАЗИС" class="cls-1" d="M318.767,529.966L316.894,479.6l-14.089.912,4.728,51.567-3.04-2.027L291.21,481.266l-3.867.251-5.11,32.5-3.624-.319-0.954-31.837-14.64.949,6.322,71.991,15.191-.984,5.587-42.243,13.058,38.812,19.06-1.234-1.181-18.228Zm-72.943,22.88,12.318-71.193-36.7-3.821-3.35,19.367,21.822,3.775-3.633,21-13.918-2.408-2.172,12.556,20.191,3.493-1.273,7.357-29.736-5.144-1.463,8.46Zm-53-32.719L214.84,474.79l-12.865-5.817-20.063,47.741-1.731-3.217,11.206-49.311-3.532-1.6-19.786,26.288-3.049-1.985,14.121-28.552L165.772,452.3l-28.255,66.521,13.872,6.271,24.786-34.663-6.715,40.4,17.4,7.868,7.526-16.644ZM122.1,415L82.269,475.287l28.795,22.558,11.041-12.292-6.091-5.145,44.669-29.368-11.944-9.684-9.671,10.767-13.191-11.5,11.573-12.886Zm3.442,42.35-20.73,17.857-6.477-4.773,13.9-23.989ZM74.5,439.216l-8.326-18.747s-4.125,2.852-8.038,2.065S49.182,410,48.98,406.242s8.367-7.5,12.412-7.146S76.615,418.07,76.615,418.07L86.9,411.806s-4.844-6.64-5.177-9.969,17.241-9.99,19.33-10.026,6.112,7.716,5.732,11.042-5.5,4.258-5.5,4.258l4.859,7.976s7.876-3.049,7.973-6.247-3.055-9.916-5.49-14.612-11.718-19.163-16.437-19.514-17.417,6.936-19.293,11.415,1.933,17.228,1.933,17.228S64.173,390.3,59.333,391.065s-21.971,10.323-22.039,15.614,15.87,36.658,19.507,38.948S74.5,439.216,74.5,439.216Zm-42.36-95.472c-0.3-.031-1.1-2.945-0.827-3.063l46.849-15.634L74.16,311.576l-16.841,5.086,1.241,5.973L10.01,338.745l2.053,9.934,49.214,11.079-42.91,10.974,4,13.415L89.56,359.952,86.8,348.706Zm-4.312-64.812L27.38,261.461s-24.125-.77-24.141,4.155S2.916,292.63,8.187,303.84a6.974,6.974,0,0,0,6.172,4.03c0.193,0,.505-0.03.7-0.056l23.636-.8s26.373-.128,31.484-4.334S75.334,270,75.276,262.2c0-.011,0-0.028,0-0.038a2.151,2.151,0,0,0-1.962-2.049l-19.219-1.107-1.3,19.577,10.276-.408s3.819,0.064,3.94,4.746c0.108,4.186-.819,8.18-3.732,9.21S41.1,293.257,41.1,293.257l-23.493.053s-4.969.491-5.149-5.746,2.012-8.192,3.459-8.315ZM38.094,196.37l44.8,23.081,6.118-12.724-47.25-21.184,3.257-1.654,49.028,12.368,1.68-3.493-25.811-20.4,2.056-3,28.207,14.791,6.358-13.221L40.71,141.115l-6.6,13.719,34.065,25.6-40.225-7.666-8.277,17.211,16.461,7.916ZM52.82,123.289l57.261,44.059,20.476-30.7L114.98,124.665l-13.505,17.552-16.888-13L93.2,118.028l-10.1-7.771-12.5,16.24-5.918-4.553,18.4-23.917-6.8-5.236Zm51.19-31,31.544,39.31,10.765-9.136L111.766,83.892l3.648-.186,39.764,31.24,2.956-2.508L142.849,83.3l3.1-1.905L165.7,106.382l11.186-9.494L128.874,42.872l-11.608,9.851,20.713,37.241L104.346,66.6,89.784,78.958,101.6,92.885ZM231.482,77.959L198.473,13.677,164.69,27.71l5.3,15.652,7.472-2.786,3.689,53.335,14.3-5.661-4.641-13.709,16.489-5.859,5.554,16.406Zm-38.6-17.771-5.4-26.824,7.337-3.3,14.088,23.882Zm37.309-36.137,20.5,0.691s-0.765-4.956,1.651-8.133,15.185-2.59,18.656-1.131,3.1,10.8,1.012,14.286S248.3,35.18,248.3,35.18l1.148,11.984s8.088-1.46,11.229-.306,1.463,19.872.584,21.767-9.609,2.131-12.436.338-1.431-6.806-1.431-6.806l-9.3.891s-0.694,8.417,2.14,9.9,10.256,1.579,15.543,1.438,22.356-2.179,24.731-6.272,1.361-18.7-1.849-22.34-16.344-5.78-16.344-5.78,16.393-3.888,17.821-8.575,0.3-24.272-4.429-26.643-39.908-1.721-43.555.551S230.193,24.051,230.193,24.051Zm104.5,3.628c0.159-.256,3.131.3,3.115,0.6l-6.519,48.955,13.862,2.314,2.824-17.363-5.912-1.507L348.9,9.986l-9.827-2.516L307.519,46.825,316.5,3.454l-13.808-2.3L294.93,72.152l11.315,2.458Zm60.161,24.959,15.872,7.312s11.347-21.3,6.937-23.492-24.092-12.222-36.477-12.446a6.973,6.973,0,0,0-6.341,3.757c-0.081.175-.2,0.467-0.258,0.65l-9.721,21.558S353.334,73.692,354.85,80.136s27.042,19.064,34.061,22.455l0.034,0.016a2.151,2.151,0,0,0,2.7-.855L401.132,85l-16.989-9.812-4.173,9.4s-1.744,3.4-6,1.438c-3.8-1.752-6.976-4.348-6.613-7.416s8.785-20.392,8.785-20.392l10.329-21.1s1.754-4.674,7.429-2.081,6.46,5.423,5.931,6.776Zm69.567,43.971L424.56,127.446l8.943,10.925,39.18-33.858,0.122,3.651-31.943,39.2,2.455,3,29.4-14.762,1.85,3.132-25.333,19.307,9.292,11.353,54.861-47.043-9.642-11.781-37.6,20.045L490.106,97.4l-12.1-14.78L463.874,94.193ZM526.1,144.66l-65.93,29.548L477.5,206.784l17.935-8.038-9.057-20.208,19.445-8.715,5.776,12.889,11.628-5.211-8.38-18.7,6.813-3.054L534,183.286l7.834-3.512Zm2.188,61.614-49.808,7.7,2.541,13.889,50.672-10.678-1.66,3.254-46.921,18.853,0.7,3.813,32.877,1.306,0.1,3.636-31.512,4.641,2.64,14.432,70.774-14.631-2.739-14.976-42.607-.648,37.036-17.473-3.437-18.789-17.968,3.287Zm-44.577,118.1,72.166-3.673,1.091-36.564-16.446-1.6-0.531,7.956-50.136-18.556-0.715,15.36,14.4,1.4-1.435,17.439-17.239-1.679Zm32.062-27.883,26.672,6.1,0,8.047-27.561,3.028Zm16.268,50.623-9.729,18.058s4.78,1.516,6.553,5.093-4.428,14.755-7.278,17.216-11.054-2.024-13.248-5.442,5.687-23.652,5.687-23.652l-11.245-4.3s-2.287,7.894-4.716,10.2-18.452-7.52-19.76-9.149,2.362-9.556,5.224-11.292,6.733,1.743,6.733,1.743l3.333-8.725s-7.231-4.362-9.819-2.482-5.972,8.487-8.195,13.286-7.982,21-5.371,24.943,16.146,9.528,20.836,8.27S503.483,368.8,503.483,368.8s-3.8,16.414-.237,19.776,21.61,11.056,25.836,7.871,19.276-34.986,18.861-39.264S532.037,347.111,532.037,347.111Zm-54.775,95.353c0.129,0.273-1.95,2.468-2.194,2.292l-37.6-32.02-9.46,10.393,13.058,11.786,4.471-4.15L484.426,464l7.441-6.893L475.91,409.249l31.575,31.057,9.415-10.358L461.455,384.94l-8.2,8.175Zm-48.091,40.178L414.79,492.57s12.543,20.619,16.675,17.941,22.794-14.5,29.3-25.038a6.974,6.974,0,0,0,0-7.37c-0.11-.159-0.3-0.407-0.428-0.553L446.744,458.2s-14.523-22.011-20.84-23.99-30.184,13.548-36.678,17.857l-0.032.022a2.152,2.152,0,0,0-.643,2.762l9.58,16.7,17.1-9.616-5.959-8.38s-2.035-3.232,1.82-5.893c3.445-2.379,7.3-3.786,9.75-1.91S433.908,463.7,433.908,463.7L446.8,483.34s3.127,3.891-2,7.451-7.958,2.794-8.853,1.649Z"/>
</svg>
